# xmcd
#
# Track frame offsets:
#	150
#	14762
#	27940
#	38244
#	50216
#	60461
#	70149
#	80418
#	92392
#	105347
#	115705
#	127366
#	140103
#	151251
#	160008
#	173317
#	184412
#	196595
#	208176
#	218962
#	231126
#	243537
#	256540
#	267708
#	281439
#	293943
#	306996
#	317557
#
# Disc length: 4387 seconds
# Revision: 0
# Processed by: cddbd v1.5.2PL0 Copyright (c) Steve Scherf et al.
# Submitted via: dBpowerAMP V12.0
#
DISCID=9611211c
DTITLE=Bob Wills and His Texas Playboys - Take Me Back To Tulsa, Disc 4 of 4
DYEAR=2001
DGENRE=Country
TTITLE0=I'm a Ding Dong Daddy
TTITLE1=Milk Cow Blues
TTITLE2=My Gal Sal
TTITLE3=Red River Valley
TTITLE4=Sugar Moon
TTITLE5=Sweet Jennie Lee
TTITLE6=The Girl I Left Behind
TTITLE7=At the Woodchopper's Ball
TTITLE8=Blues for Dixie
TTITLE9=Bubbles in My Beer
TTITLE10=Can't Get Enough of Texas
TTITLE11=Cotton Patch Blues
TTITLE12=Cowboy Stomp
TTITLE13=Crazy Rhythm
TTITLE14=Deep Water
TTITLE15=Don't Be Ashamed of Your Age
TTITLE16=Keeper of My Heart
TTITLE17=Little Cowboy Lament
TTITLE18=Thorn in My Heart
TTITLE19=Ida Red Likes to Boogie
TTITLE20=Boot Heel Drag
TTITLE21=Faded Love
TTITLE22=I Laugh When I Think How I Cried Over You
TTITLE23=I'll Be Lucky Someday
TTITLE24=I Didn't Realize
TTITLE25=Rock-A-Bye Baby Blues
TTITLE26=Jolie Blon Likes the Boogie
TTITLE27=The End of the Line
EXTD=
EXTT0=
EXTT1=
EXTT2=
EXTT3=
EXTT4=
EXTT5=
EXTT6=
EXTT7=
EXTT8=
EXTT9=
EXTT10=
EXTT11=
EXTT12=
EXTT13=
EXTT14=
EXTT15=
EXTT16=
EXTT17=
EXTT18=
EXTT19=
EXTT20=
EXTT21=
EXTT22=
EXTT23=
EXTT24=
EXTT25=
EXTT26=
EXTT27=
PLAYORDER=
